# WaveFront *.obj file (generated by CINEMA 4D)

mtllib ./Ohne_Titel_1.mtl

v -103.11631774902344 -87.52001190185547 96.88368225097656
v -103.11631774902344 112.47998809814453 96.88368225097656
v 96.88368225097656 -87.52001190185547 96.88368225097656
v 96.88368225097656 112.47998809814453 96.88368225097656
v 96.88368225097656 -87.52001190185547 -103.11631774902344
v 96.88368225097656 112.47998809814453 -103.11631774902344
v -103.11631774902344 -87.52001190185547 -103.11631774902344
v -103.11631774902344 112.47998809814453 -103.11631774902344
# 8 vertices

vn 0 0 1
vn 1 0 0
vn 0 0 -1
vn -1 0 0
vn 0 1 0
vn 0 -1 0
# 6 normals

vt 0 0 0
vt 0 1 0
vt 1 1 0
vt 1 0 0
# 4 texture coordinates

o Würfel
usemtl Mat
f 3/4/1 4/3/1 2/2/1 1/1/1
f 5/4/2 6/3/2 4/2/2 3/1/2
f 7/4/3 8/3/3 6/2/3 5/1/3
f 1/4/4 2/3/4 8/2/4 7/1/4
f 4/4/5 6/3/5 8/2/5 2/1/5
f 5/4/6 3/3/6 1/2/6 7/1/6

